<svg xmlns="http://www.w3.org/2000/svg" xml:space="preserve" width="283.5" height="121.9" version="1.0"><path fill="#f03c32" d="M62.3 1.6h-8.9V80h34.1v-8.9H62.3zM218.1 1.6h8.9V80h-8.9zM17.4 1.6H0V80h8.9V48.6h8.5c13 0 23.5-10.5 23.5-23.5S30.4 1.6 17.4 1.6zm-.1 38.2H8.9V10.4h8.4C25.4 10.4 32 17 32 25.1s-6.6 14.7-14.7 14.7zM140.6 71.6h-12.1c-13.4 0-16.7-6.6-16.7-14.7s4.2-14.7 16.7-14.7h8.3v-8.9H127c-8.4 0-15.2-5-15.2-11.8S118.6 8.9 127 8.9h13.6V0H124c-11.7 0-21.2 10.4-21.2 22.1 0 5.9 2.1 12 7.2 16-5.4 4.3-7.5 11.2-7.5 18.9 0 13 4.6 23.5 23.5 23.5h14.6v-8.9zM166.8 1.6h-8.9V80h8.9c18.9 0 34.2-17.6 34.2-39.2S185.7 1.6 166.8 1.6zm0 68V11.9c14 0 25.4 12.9 25.4 28.8s-11.4 28.9-25.4 28.9zM283.5 60.4c0-10.7-5.9-15.8-11.1-20.3l-1-.9c-1.7-1.5-3.9-2.8-6.2-4.1-6.7-3.9-11-7-11-12.9 0-7.3 3.9-11.1 11.5-11.1 6.3 0 15.1 2.8 15.2 2.8v-9c-3.5-1-9.8-2.5-15.2-2.5-9.7 0-20.1 5.2-20.1 19.7 0 11.3 9.2 16.8 15.3 20.3 1.9 1.1 3.8 2.2 4.9 3.2l1 .9c4.9 4.2 8.1 7 8.1 13.8 0 7.5-6.5 10.8-13 10.8-8.4 0-16.7-4.1-16.8-4.2v9.3c3.9 1.5 10.2 3.4 16.8 3.4 12.5.2 21.6-8 21.6-19.2z"/><path fill="#FFF" d="M1.4 121.9h9.3v-1.5H2.8v-7.1h7.9v-1.5H2.8v-7.2h7.9v-1.4H1.4zM69.3 121.9h9.2v-1.5h-7.8v-7.1h7.8v-1.5h-7.8v-7.2h7.8v-1.4h-9.2zM226.4 121.9h9.3v-1.5h-7.8v-7.1h7.8v-1.5h-7.8v-7.2h7.8v-1.4h-9.3zM46.7 104.6h4.7v17.2h1.5v-17.2h4.7v-1.4H46.7zM112 104.6h4.8v17.2h1.4v-17.2h4.8v-1.4h-11zM271.6 104.6h4.8v17.2h1.4v-17.2h4.8v-1.4h-11zM158.2 103.2h1.4v18.6h-1.4zM139.3 103.1l-.7 1.9-6 17h1.4l2.5-7h5.7l2.5 7h1.4l-6-17-.8-1.9zm-2.4 10.4 2.4-6.8 2.4 6.8h-4.8zM33.7 118.7l-9.1-15.5h-1.1v18.6h1.3v-15.5l9.2 15.5h1.1v-18.6h-1.4zM258.7 118.7l-9.2-15.5h-1.1v18.6h1.4v-15.5l9.1 15.5h1.2v-18.6h-1.4zM182.9 118.7l-9.1-15.5h-1.2v18.6h1.4v-15.5l9.1 15.5h1.2v-18.6h-1.4zM205.4 115.1l-7-11.9h-1.2v18.6h1.4v-15.5l6 10.1.8 1.4.8-1.4 6-10.1v15.5h1.3v-18.6h-1.1zM101.6 109.3c0-3.4-2.8-6.2-6.2-6.2H91v18.6h1.4v-6.3h3.1l4.1 6.3h1.6l-4.2-6.5c2.7-.6 4.6-3 4.6-5.9zm-6.1 4.8h-3v-9.6h3c2.6 0 4.8 2.1 4.8 4.8 0 2.7-2.2 4.8-4.8 4.8z"/></svg>